<?xml version="1.0" encoding="UTF-8"?>
<svg xmlns="http://www.w3.org/2000/svg" version="1.1" viewBox="265.68 425.1 332.54 317.76">
<g fill="none">
<path d="M0 0 C13.88643391 4.24003975 26.32439005 11.1145533 37 21 C37.84949219 21.75796875 38.69898438 22.5159375 39.57421875 23.296875 C55.0193589 37.77225903 65.45280652 58.99983753 66.203125 80.2421875 C66.66225232 106.85148522 59.20621439 129.67664339 40.4375 149.1875 C20.38668209 168.9223539 -8.07257749 176.30808355 -35.5 176.4375 C-74.34367143 176.07902017 -108.68521116 161.74480884 -142.90234375 144.54785156 C-145.54639915 143.22665742 -148.20491127 141.94694562 -150.875 140.6796875 C-159.09573111 136.62998788 -159.09573111 136.62998788 -161.2265625 132.7890625 C-161.87518966 130.11671861 -161.98096194 127.74909595 -162 125 C-162.20773889 122.74994504 -162.41611216 120.49994859 -162.625 118.25 C-163.06910461 111.15990891 -163.09714269 104.10220969 -163 97 C-158.00719312 98.68408169 -153.88438901 101.52602646 -149.5 104.375 C-122.90688356 121.35152207 -95.1999771 136.09531783 -64.08789062 142.55810547 C-62.64930977 142.86257593 -61.215706 143.19122791 -59.78710938 143.53955078 C-52.33282116 145.25305705 -45.00184657 145.3850517 -37.375 145.375 C-36.37971283 145.37468277 -36.37971283 145.37468277 -35.36431885 145.37435913 C-24.9429688 145.34120415 -15.80599992 144.59357602 -6 141 C-4.93394531 140.62617187 -3.86789062 140.25234375 -2.76953125 139.8671875 C13.96379336 133.46229012 23.69524362 123.84214663 31.3359375 107.96484375 C36.63707728 95.97511629 37.43673885 80.20350646 32.9375 67.875 C28.65116118 58.55372234 22.81828014 47.02544643 12.98046875 42.66015625 C8.12034056 38.32234852 7.95507938 32.60622717 6.875 26.375 C5.44223758 18.53983635 4.02776936 11.18226709 0.77392578 3.87744141 C0 2 0 2 0 0 Z " fill="#030303" transform="translate(532,495)"/>
<path d="M0 0 C0.88429688 0.18272461 1.76859375 0.36544922 2.6796875 0.55371094 C29.33175421 6.11230978 65.4610663 17.36466052 86 36 C87.4921875 39.4375 87.4921875 39.4375 88 43 C88.31324219 44.7015625 88.31324219 44.7015625 88.6328125 46.4375 C89.86990129 55.39166647 90.23057541 63.96912971 90 73 C87.19087725 71.64860752 84.58022673 70.14743432 81.96484375 68.453125 C54.99883232 51.21892033 26.56830395 36.39301351 -5 30 C-5.7935791 29.83773926 -6.5871582 29.67547852 -7.40478516 29.50830078 C-32.57931094 24.53701171 -59.85696797 25.1425923 -82.21875 39.05859375 C-94.8363098 47.8660758 -103.662859 59.31036193 -107.61328125 74.33203125 C-109.92436443 90.27617078 -107.81286621 106.84850345 -98 120 C-93.7491126 125.64359912 -93.7491126 125.64359912 -88.28149414 129.96606445 C-85.17578335 131.75055902 -83.37385839 133.05075683 -82.03393555 136.45288086 C-81.32506226 139.47959173 -80.78998674 142.49086416 -80.3125 145.5625 C-79.924702 147.72493937 -79.53152696 149.88642179 -79.1328125 152.046875 C-78.9462207 153.07748047 -78.75962891 154.10808594 -78.56738281 155.16992188 C-77.6806708 159.59279867 -76.29464401 163.70704806 -74.69921875 167.92578125 C-74 170 -74 170 -74 173 C-79.45545329 172.45960133 -83.50754965 170.50102963 -88.25 167.9375 C-89.00216797 167.534104 -89.75433594 167.13070801 -90.52929688 166.71508789 C-96.57359539 163.3929363 -101.8429063 159.58612976 -107 155 C-107.7425 154.39929688 -108.485 153.79859375 -109.25 153.1796875 C-125.77335885 139.46759457 -135.69280106 119.01543707 -139 98 C-139.28029625 94.59813353 -139.33489483 91.22483248 -139.3125 87.8125 C-139.30404053 86.44230713 -139.30404053 86.44230713 -139.29541016 85.04443359 C-138.87666578 61.41647136 -129.49673629 41.77306353 -113 25 C-112.24074219 24.22785156 -111.48148437 23.45570313 -110.69921875 22.66015625 C-104.18171502 16.4199931 -96.97450723 12.06422762 -89 8 C-87.95585937 7.4534375 -86.91171875 6.906875 -85.8359375 6.34375 C-60.05366032 -5.95144788 -27.49333702 -6.1587797 0 0 Z " fill="#030303" transform="translate(405,498)"/>
<path d="M0 0 C-1.81578332 13.23203804 -1.81578332 13.23203804 -3.0625 19.4375 C-10.59406993 60.16143761 -7.30929622 112.22564016 16.1953125 147.2734375 C26.47838292 161.39087317 39.46556973 172.20070304 57 176 C75.38888035 177.47576131 91.1870497 174.22005876 105.60546875 162.25390625 C110.06835259 158.05311673 114.14250438 153.20907739 117.2199707 147.89233398 C119 146 119 146 121.79980469 145.4699707 C122.91258789 145.45538818 124.02537109 145.44080566 125.171875 145.42578125 C126.39390625 145.39806641 127.6159375 145.37035156 128.875 145.34179688 C130.15375 145.33212891 131.4325 145.32246094 132.75 145.3125 C135.26568122 145.27014414 137.78131217 145.22466561 140.296875 145.17578125 C141.41416992 145.16458252 142.53146484 145.15338379 143.68261719 145.1418457 C147.17589119 144.99247919 150.54863648 144.54778773 154 144 C152.53076613 148.97992954 150.41802128 153.25915549 147.875 157.75 C147.47684082 158.45447266 147.07868164 159.15894531 146.66845703 159.88476562 C143.29315794 165.72760785 139.4409146 170.91680436 135 176 C134.43796875 176.69351563 133.8759375 177.38703125 133.296875 178.1015625 C123.39155258 190.08977982 108.82114143 199.3232069 94 204 C93.071875 204.29777344 92.14375 204.59554687 91.1875 204.90234375 C70.04357736 210.52517612 47.29059319 208.05483335 28 198 C27.04738281 197.52046875 26.09476562 197.0409375 25.11328125 196.546875 C16.53129342 191.92494169 9.8207828 185.85825963 3 179 C2.2471875 178.2471875 1.494375 177.494375 0.71875 176.71875 C-29.0378027 145.07289237 -36.18288543 96.31786429 -36.3125 54.8125 C-36.31644775 53.89245178 -36.32039551 52.97240356 -36.32446289 52.0244751 C-36.35516161 36.66677413 -35.21387973 22.05651369 -32 7 C-21.14624366 2.5428148 -11.76537456 -0.37952821 0 0 Z " fill="#030303" transform="translate(365,535)"/>
<path d="M0 0 C24.84072026 20.03681238 37.98210627 45.99748115 44.98828125 76.78125 C45.28734375 78.05355469 45.58640625 79.32585937 45.89453125 80.63671875 C49.89574685 97.96941818 51.55039138 114.88945054 51.54858398 132.63085938 C51.55075877 135.00669612 51.56895345 137.38205801 51.58789062 139.7578125 C51.62687724 150.60934306 50.71946137 161.14766975 49.36328125 171.90625 C49.24976318 173.08525879 49.13624512 174.26426758 49.01928711 175.47900391 C48.75349924 178.18860851 48.42781216 180.40118415 47.36328125 182.90625 C44.28769358 184.79891934 42.79246967 185.27293142 39.36328125 185.90625 C38.27789063 186.17824219 37.1925 186.45023438 36.07421875 186.73046875 C29.01315844 188.43035364 22.59959234 189.07862998 15.36328125 188.90625 C15.83876962 185.32241855 16.31931128 181.73928236 16.80078125 178.15625 C17.0028418 176.63257813 17.0028418 176.63257813 17.20898438 175.078125 C17.34111328 174.0984375 17.47324219 173.11875 17.609375 172.109375 C17.72982178 171.20864258 17.85026855 170.30791016 17.97436523 169.37988281 C18.36328125 166.90625 18.36328125 166.90625 18.87597656 164.93334961 C21.21747496 155.1931386 20.54963228 144.40436081 20.54858398 134.42358398 C20.55076869 132.10707142 20.56900203 129.79103828 20.58789062 127.47460938 C20.7120522 94.87938331 14.05126337 56.11440741 -9.63671875 31.90625 C-21.50081763 20.85970922 -36.47882259 14.21845756 -52.84765625 14.66015625 C-69.41300391 16.12180457 -83.82771031 21.97609503 -95 34.5703125 C-98.6678687 39.00591816 -98.6678687 39.00591816 -101.63671875 43.90625 C-118.96171875 44.40125 -118.96171875 44.40125 -136.63671875 44.90625 C-123.79440677 18.07499105 -106.10200982 -1.3276093 -77.96484375 -12.0859375 C-52.3480193 -19.8431449 -21.67532053 -16.1766713 0 0 Z " fill="#030303" transform="translate(483.63671875,441.09375)"/>
<path d="M0 0 C4.51310935 1.39482066 8.69166994 3.19898258 12.91015625 5.30078125 C14.24410116 5.95515858 15.5780869 6.60945269 16.91210938 7.26367188 C18.9770807 8.28191719 21.04115629 9.3019264 23.10424805 10.32397461 C31.93190111 14.68941442 40.72432027 18.65488424 50 22 C50 22.66 50 23.32 50 24 C42.40926017 26.93524646 34.85951907 29.43875227 26.9375 31.3125 C26.22408447 31.48362305 25.51066895 31.65474609 24.77563477 31.83105469 C17.34026111 33.52583717 17.34026111 33.52583717 14 33 C6.39864001 25.57053006 2.41542102 10.20354116 0 0 Z " fill="#060606" transform="translate(375,644)"/>
<path d="M0 0 C10.1257877 20.4135118 10.1257877 20.4135118 12 30 C8.32041403 28.58764213 4.82788443 26.96000137 1.31640625 25.171875 C-0.31385498 24.34659302 -0.31385498 24.34659302 -1.97705078 23.50463867 C-3.11899902 22.92560791 -4.26094727 22.34657715 -5.4375 21.75 C-14.50687118 17.17760393 -23.56107222 12.75840942 -33 9 C-33 8.34 -33 7.68 -33 7 C-22.12799536 2.72943746 -11.81721199 -0.19343651 0 0 Z " fill="#090909" transform="translate(476,490)"/>
</g></svg>